<mxfile host="app.diagrams.net" modified="2023-11-20T04:33:22.084Z" agent="Mozilla/5.0 (Windows NT 10.0; Win64; x64) AppleWebKit/537.36 (KHTML, like Gecko) Chrome/119.0.0.0 Safari/537.36" etag="bUlIcC-_NoUNsZ5KnqA0" version="22.1.3" type="github">
  <diagram name="Page-1" id="EmlFeV23htqZGgdWzR2O">
    <mxGraphModel dx="1430" dy="766" grid="1" gridSize="10" guides="1" tooltips="1" connect="1" arrows="1" fold="1" page="1" pageScale="1" pageWidth="850" pageHeight="1100" math="1" shadow="0">
      <root>
        <mxCell id="0" />
        <mxCell id="1" parent="0" />
        <mxCell id="PRLLgnHdvo2RrxujhnR4-1" value="64 filters, 4`\times`4&lt;br&gt;s=2" style="rounded=0;whiteSpace=wrap;html=1;rotation=-90;fillColor=#FFFF33;" vertex="1" parent="1">
          <mxGeometry x="80" y="360" width="360" height="40" as="geometry" />
        </mxCell>
        <mxCell id="PRLLgnHdvo2RrxujhnR4-2" value="128 filters, 4`\times`4&lt;br&gt;s=2" style="rounded=0;whiteSpace=wrap;html=1;rotation=-90;fillColor=#FFFF33;" vertex="1" parent="1">
          <mxGeometry x="200" y="360" width="280" height="40" as="geometry" />
        </mxCell>
        <mxCell id="PRLLgnHdvo2RrxujhnR4-3" value="256 filters, 4`\times`4&lt;br&gt;s=2" style="rounded=0;whiteSpace=wrap;html=1;rotation=-90;fillColor=#FFFF33;" vertex="1" parent="1">
          <mxGeometry x="320" y="360" width="200" height="40" as="geometry" />
        </mxCell>
        <mxCell id="PRLLgnHdvo2RrxujhnR4-4" value="512 filters, 4`\times`4&lt;br&gt;s=2" style="rounded=0;whiteSpace=wrap;html=1;rotation=-90;fillColor=#FFFF33;" vertex="1" parent="1">
          <mxGeometry x="440.31" y="359.69" width="119.99" height="40.62" as="geometry" />
        </mxCell>
        <mxCell id="PRLLgnHdvo2RrxujhnR4-5" value="1 filter, 4`\times`4&lt;br&gt;s=1" style="rounded=0;whiteSpace=wrap;html=1;rotation=-90;fillColor=#FFFF33;" vertex="1" parent="1">
          <mxGeometry x="519.69" y="359.68" width="120" height="40.62" as="geometry" />
        </mxCell>
        <mxCell id="PRLLgnHdvo2RrxujhnR4-6" value="" style="rounded=0;whiteSpace=wrap;html=1;fillColor=#FF99FF;" vertex="1" parent="1">
          <mxGeometry x="280" y="200" width="10" height="360" as="geometry" />
        </mxCell>
        <mxCell id="PRLLgnHdvo2RrxujhnR4-9" value="" style="rounded=0;whiteSpace=wrap;html=1;fillColor=#FF99FF;" vertex="1" parent="1">
          <mxGeometry x="360" y="240" width="10" height="280" as="geometry" />
        </mxCell>
        <mxCell id="PRLLgnHdvo2RrxujhnR4-10" value="" style="rounded=0;whiteSpace=wrap;html=1;fillColor=#FF99FF;" vertex="1" parent="1">
          <mxGeometry x="440" y="280" width="10" height="200" as="geometry" />
        </mxCell>
        <mxCell id="PRLLgnHdvo2RrxujhnR4-11" value="" style="rounded=0;whiteSpace=wrap;html=1;fillColor=#FF99FF;" vertex="1" parent="1">
          <mxGeometry x="520" y="320" width="10" height="120" as="geometry" />
        </mxCell>
        <mxCell id="PRLLgnHdvo2RrxujhnR4-12" value="" style="rounded=0;whiteSpace=wrap;html=1;fillColor=#66B2FF;" vertex="1" parent="1">
          <mxGeometry x="600" y="320" width="10" height="120" as="geometry" />
        </mxCell>
        <mxCell id="PRLLgnHdvo2RrxujhnR4-13" value="`frac{k}{2}`" style="text;html=1;align=center;verticalAlign=middle;resizable=0;points=[];autosize=1;strokeColor=none;fillColor=none;" vertex="1" parent="1">
          <mxGeometry x="220" y="570" width="80" height="30" as="geometry" />
        </mxCell>
        <mxCell id="PRLLgnHdvo2RrxujhnR4-14" value="`frac{k}{4}`" style="text;html=1;align=center;verticalAlign=middle;resizable=0;points=[];autosize=1;strokeColor=none;fillColor=none;" vertex="1" parent="1">
          <mxGeometry x="300" y="530" width="80" height="30" as="geometry" />
        </mxCell>
        <mxCell id="PRLLgnHdvo2RrxujhnR4-15" value="`frac{k}{8}`" style="text;html=1;align=center;verticalAlign=middle;resizable=0;points=[];autosize=1;strokeColor=none;fillColor=none;" vertex="1" parent="1">
          <mxGeometry x="380" y="490" width="80" height="30" as="geometry" />
        </mxCell>
        <mxCell id="PRLLgnHdvo2RrxujhnR4-16" value="`frac{k}{16}`" style="text;html=1;align=center;verticalAlign=middle;resizable=0;points=[];autosize=1;strokeColor=none;fillColor=none;" vertex="1" parent="1">
          <mxGeometry x="455.3" y="450" width="90" height="30" as="geometry" />
        </mxCell>
        <mxCell id="PRLLgnHdvo2RrxujhnR4-17" value="`frac{k}{16}`" style="text;html=1;align=center;verticalAlign=middle;resizable=0;points=[];autosize=1;strokeColor=none;fillColor=none;" vertex="1" parent="1">
          <mxGeometry x="534.69" y="450" width="90" height="30" as="geometry" />
        </mxCell>
        <mxCell id="PRLLgnHdvo2RrxujhnR4-18" value="" style="endArrow=classic;html=1;rounded=0;exitX=1;exitY=0.5;exitDx=0;exitDy=0;entryX=0.5;entryY=0;entryDx=0;entryDy=0;" edge="1" parent="1" source="PRLLgnHdvo2RrxujhnR4-6" target="PRLLgnHdvo2RrxujhnR4-2">
          <mxGeometry width="50" height="50" relative="1" as="geometry">
            <mxPoint x="360" y="440" as="sourcePoint" />
            <mxPoint x="410" y="390" as="targetPoint" />
          </mxGeometry>
        </mxCell>
        <mxCell id="PRLLgnHdvo2RrxujhnR4-19" value="" style="endArrow=classic;html=1;rounded=0;exitX=1;exitY=0.5;exitDx=0;exitDy=0;entryX=0.5;entryY=0;entryDx=0;entryDy=0;" edge="1" parent="1" source="PRLLgnHdvo2RrxujhnR4-9" target="PRLLgnHdvo2RrxujhnR4-3">
          <mxGeometry width="50" height="50" relative="1" as="geometry">
            <mxPoint x="300" y="390" as="sourcePoint" />
            <mxPoint x="330" y="390" as="targetPoint" />
          </mxGeometry>
        </mxCell>
        <mxCell id="PRLLgnHdvo2RrxujhnR4-20" value="" style="endArrow=classic;html=1;rounded=0;exitX=1;exitY=0.5;exitDx=0;exitDy=0;entryX=0.5;entryY=0;entryDx=0;entryDy=0;" edge="1" parent="1" source="PRLLgnHdvo2RrxujhnR4-10" target="PRLLgnHdvo2RrxujhnR4-4">
          <mxGeometry width="50" height="50" relative="1" as="geometry">
            <mxPoint x="310" y="400" as="sourcePoint" />
            <mxPoint x="340" y="400" as="targetPoint" />
          </mxGeometry>
        </mxCell>
        <mxCell id="PRLLgnHdvo2RrxujhnR4-21" value="" style="endArrow=classic;html=1;rounded=0;exitX=1;exitY=0.5;exitDx=0;exitDy=0;entryX=0.5;entryY=0;entryDx=0;entryDy=0;" edge="1" parent="1" source="PRLLgnHdvo2RrxujhnR4-11" target="PRLLgnHdvo2RrxujhnR4-5">
          <mxGeometry width="50" height="50" relative="1" as="geometry">
            <mxPoint x="320" y="410" as="sourcePoint" />
            <mxPoint x="350" y="410" as="targetPoint" />
          </mxGeometry>
        </mxCell>
        <mxCell id="PRLLgnHdvo2RrxujhnR4-22" value="" style="rounded=0;whiteSpace=wrap;html=1;fillColor=#FFFF66;" vertex="1" parent="1">
          <mxGeometry x="560.3000000000001" y="560" width="10.31" height="10" as="geometry" />
        </mxCell>
        <mxCell id="PRLLgnHdvo2RrxujhnR4-23" value="" style="rounded=0;whiteSpace=wrap;html=1;fillColor=#FF99FF;" vertex="1" parent="1">
          <mxGeometry x="560.61" y="580" width="10.31" height="10" as="geometry" />
        </mxCell>
        <mxCell id="PRLLgnHdvo2RrxujhnR4-24" value="" style="rounded=0;whiteSpace=wrap;html=1;fillColor=#66B2FF;" vertex="1" parent="1">
          <mxGeometry x="560.61" y="600" width="10.31" height="10" as="geometry" />
        </mxCell>
        <mxCell id="PRLLgnHdvo2RrxujhnR4-25" value="Convolutional Layer" style="text;html=1;align=center;verticalAlign=middle;resizable=0;points=[];autosize=1;strokeColor=none;fillColor=none;" vertex="1" parent="1">
          <mxGeometry x="570.92" y="550" width="130" height="30" as="geometry" />
        </mxCell>
        <mxCell id="PRLLgnHdvo2RrxujhnR4-26" value="Instance Normalization, Leaky ReLU" style="text;html=1;align=center;verticalAlign=middle;resizable=0;points=[];autosize=1;strokeColor=none;fillColor=none;" vertex="1" parent="1">
          <mxGeometry x="570.92" y="570" width="220" height="30" as="geometry" />
        </mxCell>
        <mxCell id="PRLLgnHdvo2RrxujhnR4-27" value="Sigmoid" style="text;html=1;align=center;verticalAlign=middle;resizable=0;points=[];autosize=1;strokeColor=none;fillColor=none;" vertex="1" parent="1">
          <mxGeometry x="570.61" y="590" width="70" height="30" as="geometry" />
        </mxCell>
      </root>
    </mxGraphModel>
  </diagram>
</mxfile>
